<svg xmlns="http://www.w3.org/2000/svg" viewBox="0 0 2374 2374"><title>DataBuyer-logo</title><circle cx="1187" cy="1187" r="1187" style="fill:#5c677b"/><path d="M507.79,1494.94l593.57-595.46L1697,1497,1103.46,2092.5Z" transform="translate(-46 -55.99)" style="fill:#fff;opacity:0.5;isolation:isolate"/><path d="M682.82,1487.2l593.57-595.46,595.67,597.56-593.57,595.46Z" transform="translate(-46 -55.99)" style="fill:#fff"/><path d="M1184.8,1078.76l93.79-94.09,94.12,94.42-93.79,94.08Z" transform="translate(-46 -55.99)" style="fill:#5c677b"/><path d="M1184.8,567.16l93.79-94.09,94.12,94.42-93.79,94.09Z" transform="translate(-46 -55.99)" style="fill:#fff;opacity:0.5;isolation:isolate"/><path d="M1184.8,755.67l93.79-94.09L1372.71,756l-93.79,94.09Z" transform="translate(-46 -55.99)" style="fill:#fff;opacity:0.5;isolation:isolate"/><path d="M1184.8,378.65l93.79-94.09L1372.71,379l-93.79,94.09Z" transform="translate(-46 -55.99)" style="fill:#fff;opacity:0.5;isolation:isolate"/><path d="M1137.14,1126.75l93.79-94.09,94.12,94.42-93.8,94.09Z" transform="translate(-46 -55.99)" style="fill:#fff;opacity:0.5;isolation:isolate"/></svg>