<svg xmlns="http://www.w3.org/2000/svg" viewBox="0 0 2374 2374"><title>Dex-logo</title><circle cx="1187" cy="1187" r="1187" style="fill:#00a2bf"/><path d="M1037.42,1236.71l227.08-226.87,227.89,227.67L1265.3,1464.38Z" transform="translate(-42 -54.48)" style="fill:#fff"/><path d="M1036.48,1691l227.08-226.87,227.89,227.67-227.08,226.87Z" transform="translate(-42 -54.48)" style="fill:#fff"/><path d="M1036.66,782.21l227.08-226.87L1491.62,783l-227.08,226.87Z" transform="translate(-42 -54.48)" style="fill:#fff"/><path d="M809.52,1009.06,1036.6,782.19l227.89,227.67-227.08,226.87Z" transform="translate(-42 -54.48)" style="fill:#fff"/><polygon points="1905.25 1183.99 1905.34 1183.89 1905.34 1183.89 2132.42 957.02 1904.54 729.35 1677.46 956.23 1677.47 956.23 1677.46 956.24 1449.56 728.58 1222.49 955.45 1450.39 1183.11 1450.4 1183.09 1450.4 1183.1 1223.34 1409.96 1451.23 1637.63 1678.29 1410.77 1906.17 1638.42 2133.25 1411.55 1905.25 1183.99" style="fill:#fff;opacity:0.5;isolation:isolate"/><path d="M810.32,1463.56l227.08-226.87,227.89,227.67-227.08,226.87Z" transform="translate(-42 -54.48)" style="fill:#fff"/><polygon points="995.42 1182.24 767.53 954.57 767.52 954.59 539.64 726.92 312.56 953.79 540.45 1181.46 313.38 1408.31 541.27 1635.98 768.34 1409.11 768.34 1409.11 995.42 1182.24" style="fill:#fff;opacity:0.5"/></svg>