<svg xmlns="http://www.w3.org/2000/svg" viewBox="0 0 2374 2374"><title>MarketSquare-logo</title><circle cx="1187" cy="1187" r="1187" style="fill:#ef5350"/><rect x="587.59" y="571.25" width="370.53" height="371.94" style="fill:#fff"/><rect x="1011.16" y="571.25" width="369.84" height="371.94" style="fill:#fff"/><rect x="587.59" y="996.22" width="370.53" height="371.25" style="fill:#fff"/><rect x="1011.16" y="996.22" width="369.84" height="371.25" style="fill:#fff"/><rect x="1434.03" y="996.22" width="370.56" height="371.25" style="fill:#fff"/><rect x="587.59" y="1420.5" width="370.53" height="371.25" style="fill:#fff"/><rect x="1011.16" y="1420.5" width="369.84" height="371.25" style="fill:#fff"/><rect x="1434.03" y="1420.5" width="370.56" height="371.25" style="fill:#fff"/><path d="M1483.75,604l373.9-172.19V826.67l-373.9,167.47Z" transform="translate(-48 -47)" style="fill:#fff"/><g style="isolation:isolate"><g style="isolation:isolate"><path d="M1160.44,1839l-9.58-23.73h-.14q.14,2.18.14,4.46V1839h-1.72v-25.7h2.78L1161,1836h.11l9.1-22.61h2.71V1839h-1.81v-19.48q0-2,.21-4.22h-.14l-9.61,23.7Z" transform="translate(-48 -47)" style="fill:#fff"/><path d="M1191.36,1839l-.44-3h-.14a9.07,9.07,0,0,1-3,2.61,7.91,7.91,0,0,1-3.59.76,6.21,6.21,0,0,1-4.38-1.44,5.15,5.15,0,0,1-1.56-4,4.92,4.92,0,0,1,2.33-4.34,12.66,12.66,0,0,1,6.74-1.63l3.64-.11v-1.27a6.5,6.5,0,0,0-1.11-4.11,4.29,4.29,0,0,0-3.57-1.39,11.94,11.94,0,0,0-5.5,1.48l-.65-1.51a14.56,14.56,0,0,1,6.22-1.48,6.2,6.2,0,0,1,4.7,1.63q1.56,1.63,1.56,5.1V1839Zm-7-1.23a6.08,6.08,0,0,0,6.59-6.61v-1.88l-3.34.14a12.62,12.62,0,0,0-5.74,1.26,3.62,3.62,0,0,0-1.71,3.31,3.56,3.56,0,0,0,1.1,2.79A4.47,4.47,0,0,0,1184.33,1837.82Z" transform="translate(-48 -47)" style="fill:#fff"/><path d="M1206.35,1819.57a15,15,0,0,1,2.6.25l-.33,1.67a10.18,10.18,0,0,0-2.48-.3,4.81,4.81,0,0,0-4,2.07,8.46,8.46,0,0,0-1.56,5.24V1839h-1.74v-19.11h1.48l.18,3.45h.12a8.1,8.1,0,0,1,2.51-3A5.89,5.89,0,0,1,1206.35,1819.57Z" transform="translate(-48 -47)" style="fill:#fff"/><path d="M1214.54,1830.66l9.75-10.72h2.11l-7.52,8.16,8.17,11H1225l-7.26-9.65-3.13,2.85v6.8h-1.74v-27.35h1.74v13.71l-.12,5.26Z" transform="translate(-48 -47)" style="fill:#fff"/><path d="M1238,1839.4a8.32,8.32,0,0,1-6.49-2.57q-2.33-2.57-2.33-7.19a11.21,11.21,0,0,1,2.25-7.32,7.43,7.43,0,0,1,6.06-2.75,6.55,6.55,0,0,1,5.33,2.36,9.73,9.73,0,0,1,2,6.4v1.41H1231a9,9,0,0,0,1.84,6,6.46,6.46,0,0,0,5.16,2.07,16,16,0,0,0,2.87-.23,17.47,17.47,0,0,0,3.14-1v1.58a14,14,0,0,1-3,1A16.59,16.59,0,0,1,1238,1839.4Zm-.51-18.28a5.72,5.72,0,0,0-4.43,1.82,8.58,8.58,0,0,0-2,5.25h11.81a8.33,8.33,0,0,0-1.44-5.19A4.75,4.75,0,0,0,1237.46,1821.12Z" transform="translate(-48 -47)" style="fill:#fff"/><path d="M1255,1837.85a13.05,13.05,0,0,0,2.88-.28V1839a9.22,9.22,0,0,1-2.92.42,4.75,4.75,0,0,1-3.74-1.35,6.28,6.28,0,0,1-1.2-4.25v-12.34h-2.83v-1l2.83-.79.88-4.32h.9v4.62h5.61v1.51h-5.61v12.09a5.52,5.52,0,0,0,.77,3.25A2.81,2.81,0,0,0,1255,1837.85Z" transform="translate(-48 -47)" style="fill:#fff"/><path d="M1276.68,1832.42a6.17,6.17,0,0,1-2.36,5.1,9.8,9.8,0,0,1-6.28,1.88,19.68,19.68,0,0,1-7.22-1v-1.79a18.27,18.27,0,0,0,7.08,1.18,7.94,7.94,0,0,0,5-1.45,4.6,4.6,0,0,0,1.85-3.81,4.39,4.39,0,0,0-.62-2.42,5.61,5.61,0,0,0-2-1.75,24.73,24.73,0,0,0-4.08-1.71,14,14,0,0,1-5.44-2.93,5.82,5.82,0,0,1-1.5-4.19,5.76,5.76,0,0,1,2.26-4.7,9,9,0,0,1,5.81-1.82,17,17,0,0,1,6.8,1.37l-.65,1.55a15.87,15.87,0,0,0-6.12-1.34,7.17,7.17,0,0,0-4.54,1.32,4.31,4.31,0,0,0-1.69,3.59,4.7,4.7,0,0,0,.52,2.34,4.77,4.77,0,0,0,1.7,1.64,23.22,23.22,0,0,0,4,1.75,21.81,21.81,0,0,1,4.52,2,6.47,6.47,0,0,1,2.21,2.21A6.06,6.06,0,0,1,1276.68,1832.42Z" transform="translate(-48 -47)" style="fill:#fff"/><path d="M1288.48,1839.4a7.17,7.17,0,0,1-5.84-2.5q-2.07-2.5-2.07-7.21t2.07-7.48a7.1,7.1,0,0,1,5.94-2.65,7,7,0,0,1,6.2,3.06h.11l.32-2.69h1.48v27.76H1295v-7.28q0-2.14.11-4.36H1295A7.08,7.08,0,0,1,1288.48,1839.4Zm0-1.55q3.48,0,5-1.92t1.49-6.43v-.21q0-4.31-1.49-6.22a5.67,5.67,0,0,0-4.76-1.92,5.48,5.48,0,0,0-4.7,2.18q-1.61,2.18-1.61,6.4,0,4,1.57,6.07A5.38,5.38,0,0,0,1288.51,1837.85Z" transform="translate(-48 -47)" style="fill:#fff"/><path d="M1304.61,1819.94v12.38a6,6,0,0,0,1.21,4.19,4.9,4.9,0,0,0,3.76,1.31q3.41,0,5-1.72t1.61-5.61v-10.55h1.72V1839h-1.48l-.32-2.64H1316q-1.86,3-6.63,3-6.52,0-6.52-7v-12.48Z" transform="translate(-48 -47)" style="fill:#fff"/><path d="M1335.93,1839l-.44-3h-.14a9.07,9.07,0,0,1-3,2.61,7.91,7.91,0,0,1-3.59.76,6.21,6.21,0,0,1-4.38-1.44,5.15,5.15,0,0,1-1.56-4,4.92,4.92,0,0,1,2.33-4.34,12.66,12.66,0,0,1,6.74-1.63l3.64-.11v-1.27a6.5,6.5,0,0,0-1.11-4.11,4.29,4.29,0,0,0-3.57-1.39,11.94,11.94,0,0,0-5.5,1.48l-.65-1.51a14.56,14.56,0,0,1,6.22-1.48,6.2,6.2,0,0,1,4.7,1.63q1.56,1.63,1.56,5.1V1839Zm-7-1.23a6.08,6.08,0,0,0,6.59-6.61v-1.88l-3.34.14a12.62,12.62,0,0,0-5.74,1.26,3.62,3.62,0,0,0-1.71,3.31,3.56,3.56,0,0,0,1.1,2.79A4.47,4.47,0,0,0,1328.9,1837.82Z" transform="translate(-48 -47)" style="fill:#fff"/><path d="M1350.92,1819.57a15,15,0,0,1,2.6.25l-.33,1.67a10.18,10.18,0,0,0-2.48-.3,4.81,4.81,0,0,0-4,2.07,8.46,8.46,0,0,0-1.56,5.24V1839h-1.74v-19.11h1.48l.18,3.45h.12a8.1,8.1,0,0,1,2.51-3A5.89,5.89,0,0,1,1350.92,1819.57Z" transform="translate(-48 -47)" style="fill:#fff"/><path d="M1365.13,1839.4a8.32,8.32,0,0,1-6.49-2.57q-2.33-2.57-2.33-7.19a11.21,11.21,0,0,1,2.25-7.32,7.43,7.43,0,0,1,6.06-2.75,6.55,6.55,0,0,1,5.33,2.36,9.73,9.73,0,0,1,2,6.4v1.41h-13.76a9,9,0,0,0,1.84,6,6.46,6.46,0,0,0,5.16,2.07,16,16,0,0,0,2.87-.23,17.47,17.47,0,0,0,3.14-1v1.58a14,14,0,0,1-3,1A16.59,16.59,0,0,1,1365.13,1839.4Zm-.51-18.28a5.72,5.72,0,0,0-4.43,1.82,8.58,8.58,0,0,0-2,5.25H1370a8.33,8.33,0,0,0-1.44-5.19A4.75,4.75,0,0,0,1364.62,1821.12Z" transform="translate(-48 -47)" style="fill:#fff"/></g></g></svg>