<svg xmlns="http://www.w3.org/2000/svg" width="100" height="100" viewBox="0 0 100 100"><defs id="defs57"><filter x="0" y="0" width="1" height="1" color-interpolation-filters="sRGB" id="filter3804"><feColorMatrix type="saturate" values="0" id="feColorMatrix3806"/></filter><filter x="0" y="0" width="1" height="1" color-interpolation-filters="sRGB" id="filter3808"><feColorMatrix type="saturate" values="0" id="feColorMatrix3810"/></filter><filter x="0" y="0" width="1" height="1" color-interpolation-filters="sRGB" id="filter3812"><feColorMatrix type="saturate" values="0" id="feColorMatrix3814"/></filter></defs><style type="text/css" id="style3">.st0{fill:#FFFFFF;} .st1{fill:url(#SVGID_1_);} .st2{fill:url(#SVGID_2_);} .st3{fill:url(#SVGID_3_);} .st4{fill:url(#SVGID_4_);} .st5{fill:url(#SVGID_5_);} .st6{fill:url(#SVGID_6_);}</style><circle class="st0" cx="50" cy="50" r="39" id="circle5" filter="url(#filter3804)"/><linearGradient id="SVGID_1_" gradientUnits="userSpaceOnUse" x1="51.878" y1="51.801" x2="74.142" y2="74.066"><stop offset="0" id="stop8" stop-opacity=".1"/><stop offset="1" id="stop10" stop-opacity="0"/></linearGradient><path class="st1" d="M56.5 88.5c16.4-2.7 29.3-15.7 32-32.1l-20-20-.5 5.8.2 4.8 3.2 3-3.2 3-.2 1.7-7-7-4.3 4.1.1.1-4.9-4.2L38 35l-2.9 1.4-2.6 2.7-1.3 7.9-2.5 3 1.1 1 1.8 4.4-.5 7.8 25.4 25.3z" id="path12" filter="url(#filter3808)"/><g id="g14" filter="url(#filter3812)"><g id="g16"><linearGradient id="SVGID_2_" gradientUnits="userSpaceOnUse" x1="92.49" y1="107.01" x2="-5.424" y2="9.095"><stop offset="0" id="stop19" stop-color="#2395D6"/><stop offset="1" id="stop21" stop-color="#543896"/></linearGradient><path class="st2" d="M30.4 50c2.1.2 3.6 1.8 3.6 4.2v4.3c0 2.5.4 3.5 3.2 3.5h.8v3h-1.6C32 65 30 63.3 30 58.9v-3.6c0-2.3-.8-3.4-3-3.4V48c2.3 0 3-1.3 3-3.6v-3.8c0-4.4 2.1-5.7 6.4-5.7H38v3h-.9c-2.7 0-3.2 1.1-3.2 3.5V46c.1 2.5-1.4 3.8-3.5 4z" id="path23"/></g><g id="g25"><linearGradient id="SVGID_3_" gradientUnits="userSpaceOnUse" x1="107.059" y1="92.441" x2="9.144" y2="-5.473"><stop offset="0" id="stop28" stop-color="#2395D6"/><stop offset="1" id="stop30" stop-color="#543896"/></linearGradient><path class="st3" d="M69.6 50c-2.1-.2-3.6-1.5-3.6-4v-4.5c0-2.5-.4-3.5-3.2-3.5H62v-3h1.6c4.4 0 6.4 1.3 6.4 5.7v3.8c0 2.3.8 3.6 3 3.6V52c-2.3 0-3 1-3 3.4V59c0 4.4-2.1 6.1-6.4 6.1H62v-3h.9c2.7 0 3.2-1 3.2-3.5v-4.3c-.1-2.5 1.4-4.1 3.5-4.3z" id="path32"/></g><linearGradient id="SVGID_4_" gradientUnits="userSpaceOnUse" x1="99.748" y1="99.752" x2="1.833" y2="1.838"><stop offset="0" id="stop35" stop-color="#2395D6"/><stop offset="1" id="stop37" stop-color="#543896"/></linearGradient><circle class="st4" cx="50" cy="50" r="3" id="circle39"/><linearGradient id="SVGID_5_" gradientUnits="userSpaceOnUse" x1="95.248" y1="104.252" x2="-2.667" y2="6.338"><stop offset="0" id="stop42" stop-color="#2395D6"/><stop offset="1" id="stop44" stop-color="#543896"/></linearGradient><circle class="st5" cx="41" cy="50" r="3" id="circle46"/><linearGradient id="SVGID_6_" gradientUnits="userSpaceOnUse" x1="104.248" y1="95.252" x2="6.333" y2="-2.662"><stop offset="0" id="stop49" stop-color="#2395D6"/><stop offset="1" id="stop51" stop-color="#543896"/></linearGradient><circle class="st6" cx="59" cy="50" r="3" id="circle53"/></g></svg>