<?xml version="1.0" encoding="UTF-8" standalone="no"?>
<!-- Generator: Adobe Illustrator 21.0.2, SVG Export Plug-In . SVG Version: 6.00 Build 0)  -->

<svg
   xmlns:dc="http://purl.org/dc/elements/1.1/"
   xmlns:cc="http://creativecommons.org/ns#"
   xmlns:rdf="http://www.w3.org/1999/02/22-rdf-syntax-ns#"
   xmlns:svg="http://www.w3.org/2000/svg"
   xmlns="http://www.w3.org/2000/svg"
   xmlns:sodipodi="http://sodipodi.sourceforge.net/DTD/sodipodi-0.dtd"
   xmlns:inkscape="http://www.inkscape.org/namespaces/inkscape"
   version="1.1"
   id="Layer_1"
   x="0px"
   y="0px"
   width="100px"
   height="100px"
   viewBox="0 0 100 100"
   style="enable-background:new 0 0 100 100;"
   xml:space="preserve"
   inkscape:version="0.48.5 r10040"
   sodipodi:docname="header-access-api.svg"><metadata
     id="metadata59"><rdf:RDF><cc:Work
         rdf:about=""><dc:format>image/svg+xml</dc:format><dc:type
           rdf:resource="http://purl.org/dc/dcmitype/StillImage" /></cc:Work></rdf:RDF></metadata><defs
     id="defs57"><filter
       inkscape:label="Desaturate"
       x="0"
       y="0"
       width="1"
       height="1"
       inkscape:menu="Color"
       inkscape:menu-tooltip="Render in shades of gray by reducing saturation to zero"
       color-interpolation-filters="sRGB"
       id="filter3804"><feColorMatrix
         type="saturate"
         values="0"
         id="feColorMatrix3806" /></filter><filter
       inkscape:label="Desaturate"
       x="0"
       y="0"
       width="1"
       height="1"
       inkscape:menu="Color"
       inkscape:menu-tooltip="Render in shades of gray by reducing saturation to zero"
       color-interpolation-filters="sRGB"
       id="filter3808"><feColorMatrix
         type="saturate"
         values="0"
         id="feColorMatrix3810" /></filter><filter
       inkscape:label="Desaturate"
       x="0"
       y="0"
       width="1"
       height="1"
       inkscape:menu="Color"
       inkscape:menu-tooltip="Render in shades of gray by reducing saturation to zero"
       color-interpolation-filters="sRGB"
       id="filter3812"><feColorMatrix
         type="saturate"
         values="0"
         id="feColorMatrix3814" /></filter></defs><sodipodi:namedview
     pagecolor="#ffffff"
     bordercolor="#666666"
     borderopacity="1"
     objecttolerance="10"
     gridtolerance="10"
     guidetolerance="10"
     inkscape:pageopacity="0"
     inkscape:pageshadow="2"
     inkscape:window-width="720"
     inkscape:window-height="480"
     id="namedview55"
     showgrid="false"
     inkscape:zoom="2.36"
     inkscape:cx="50"
     inkscape:cy="50"
     inkscape:window-x="0"
     inkscape:window-y="29"
     inkscape:window-maximized="0"
     inkscape:current-layer="Layer_1" /><style
     type="text/css"
     id="style3">
	.st0{fill:#FFFFFF;}
	.st1{fill:url(#SVGID_1_);}
	.st2{fill:url(#SVGID_2_);}
	.st3{fill:url(#SVGID_3_);}
	.st4{fill:url(#SVGID_4_);}
	.st5{fill:url(#SVGID_5_);}
	.st6{fill:url(#SVGID_6_);}
</style><circle
     class="st0"
     cx="50"
     cy="50"
     r="39"
     id="circle5"
     style="filter:url(#filter3804)" /><linearGradient
     id="SVGID_1_"
     gradientUnits="userSpaceOnUse"
     x1="51.8776"
     y1="51.8013"
     x2="74.1421"
     y2="74.0658"><stop
       offset="0"
       style="stop-color:#000000;stop-opacity:0.1"
       id="stop8" /><stop
       offset="1"
       style="stop-color:#000000;stop-opacity:0"
       id="stop10" /></linearGradient><path
     class="st1"
     d="M56.5,88.5c16.4-2.7,29.3-15.7,32-32.1l-20-20L68,42.2l0.2,4.8l3.2,3l-3.2,3L68,54.7l-7-7l-4.3,4.1l0.1,0.1  l-4.9-4.2L38,35l-2.9,1.4l-2.6,2.7L31.2,47l-2.5,3l1.1,1l1.8,4.4l-0.5,7.8L56.5,88.5z"
     id="path12"
     style="filter:url(#filter3808)" /><g
     id="g14"
     style="filter:url(#filter3812)"><g
       id="g16"><linearGradient
         id="SVGID_2_"
         gradientUnits="userSpaceOnUse"
         x1="92.4901"
         y1="107.0099"
         x2="-5.4244"
         y2="9.0954"><stop
           offset="0"
           style="stop-color:#2395D6"
           id="stop19" /><stop
           offset="1"
           style="stop-color:#543896"
           id="stop21" /></linearGradient><path
         class="st2"
         d="M30.4,50c2.1,0.2,3.6,1.8,3.6,4.2v4.3c0,2.5,0.4,3.5,3.2,3.5H38v3h-1.6c-4.4,0-6.4-1.7-6.4-6.1v-3.6    c0-2.3-0.8-3.4-3-3.4V48c2.3,0,3-1.3,3-3.6v-3.8c0-4.4,2.1-5.7,6.4-5.7H38v3h-0.9c-2.7,0-3.2,1.1-3.2,3.5V46    C34,48.5,32.5,49.8,30.4,50L30.4,50z"
         id="path23" /></g><g
       id="g25"><linearGradient
         id="SVGID_3_"
         gradientUnits="userSpaceOnUse"
         x1="107.0586"
         y1="92.4414"
         x2="9.1441"
         y2="-5.4731"><stop
           offset="0"
           style="stop-color:#2395D6"
           id="stop28" /><stop
           offset="1"
           style="stop-color:#543896"
           id="stop30" /></linearGradient><path
         class="st3"
         d="M69.6,50C67.5,49.8,66,48.5,66,46v-4.5c0-2.5-0.4-3.5-3.2-3.5H62v-3h1.6c4.4,0,6.4,1.3,6.4,5.7v3.8    c0,2.3,0.8,3.6,3,3.6V52c-2.3,0-3,1-3,3.4v3.6c0,4.4-2.1,6.1-6.4,6.1H62v-3h0.9c2.7,0,3.2-1,3.2-3.5v-4.3    C66,51.8,67.5,50.2,69.6,50L69.6,50z"
         id="path32" /></g><linearGradient
       id="SVGID_4_"
       gradientUnits="userSpaceOnUse"
       x1="99.7479"
       y1="99.7521"
       x2="1.8334"
       y2="1.8376"><stop
         offset="0"
         style="stop-color:#2395D6"
         id="stop35" /><stop
         offset="1"
         style="stop-color:#543896"
         id="stop37" /></linearGradient><circle
       class="st4"
       cx="50"
       cy="50"
       r="3"
       id="circle39" /><linearGradient
       id="SVGID_5_"
       gradientUnits="userSpaceOnUse"
       x1="95.2479"
       y1="104.2521"
       x2="-2.6666"
       y2="6.3376"><stop
         offset="0"
         style="stop-color:#2395D6"
         id="stop42" /><stop
         offset="1"
         style="stop-color:#543896"
         id="stop44" /></linearGradient><circle
       class="st5"
       cx="41"
       cy="50"
       r="3"
       id="circle46" /><linearGradient
       id="SVGID_6_"
       gradientUnits="userSpaceOnUse"
       x1="104.2479"
       y1="95.2521"
       x2="6.3334"
       y2="-2.6624"><stop
         offset="0"
         style="stop-color:#2395D6"
         id="stop49" /><stop
         offset="1"
         style="stop-color:#543896"
         id="stop51" /></linearGradient><circle
       class="st6"
       cx="59"
       cy="50"
       r="3"
       id="circle53" /></g></svg>